# xmcd
#
# Track frame offsets: 
#        150
#        11743
#        29655
#        43599
#        59810
#        76597
#        94350
#        116948
#        139312
#        162420
#        179006
#        196389
#        216626
#        237980
#        255745
#        275049
#        289380
#        309969
#
# Disc length: 4528 seconds
#
# Revision: 0
# Processed by: cddbd v1.5.2PL0 Copyright (c) Steve Scherf et al.
# Submitted via: ExactAudioCopy v0.99pb5
#
DISCID=2411ae12
DTITLE=Various Artist - 100 Years Of The Blues - From Mystical Gods To Modern
DTITLE=Day - Disc 4
DYEAR=2011
DGENRE=Blues
TTITLE0=The Rolling Stones - You Gotta Move
TTITLE1=Guy Davis - If I had Possession Over Judgement Day
TTITLE2=Keb Mo - Love In Vain
TTITLE3=Rory Gallagher - Should've Learnt My Lesson
TTITLE4=Johnny Winter - I love Everybody
TTITLE5=Robert Cray - I Wonder
TTITLE6=Stevie Ray Vaughan and Double Trouble - Dirty Pool
TTITLE7=Robben Ford and The Blue Line
TTITLE8=Jonny Lang - Darker Side
TTITLE9=The Blues Band - Rolling Log
TTITLE10=Blind Mississippi Morris - Cherry Picker
TTITLE11=Bonnie Raitt - Geve It Up Or Let Me Go
TTITLE12=Sonny Landreth - A World Away
TTITLE13=Susan Tedeschi - Back To The River
TTITLE14=Chris Rea - Electric Memphis Blues
TTITLE15=The Answer - Trouble
TTITLE16=Marcus Bonfanti - Devil Girl
TTITLE17=Lee Ritenour's 6 String Theory - Why I Sing The Blues
EXTD=
EXTT0=
EXTT1=
EXTT2=
EXTT3=
EXTT4=
EXTT5=
EXTT6=
EXTT7=
EXTT8=
EXTT9=
EXTT10=
EXTT11=
EXTT12=
EXTT13=
EXTT14=
EXTT15=
EXTT16=
EXTT17=
PLAYORDER=
